<mxfile modified="2023-03-15T22:18:51.950Z" host="Electron" agent="5.0 (Windows NT 10.0; Win64; x64) AppleWebKit/537.36 (KHTML, like Gecko) draw.io/20.3.0 Chrome/104.0.5112.114 Electron/20.1.3 Safari/537.36" etag="GyPKkLXSZi4nKJ0z0-9T" compressed="false" version="20.3.0" type="device">
  <diagram id="HUKczoVXxIGVjZq7eSuW" name="Page-3">
    <mxGraphModel dx="782" dy="517" grid="1" gridSize="10" guides="1" tooltips="1" connect="1" arrows="1" fold="1" page="1" pageScale="1" pageWidth="827" pageHeight="1169" math="0" shadow="0">
      <root>
        <mxCell id="-74E_I0a73wQQZLRpNyG-0" />
        <mxCell id="-74E_I0a73wQQZLRpNyG-1" parent="-74E_I0a73wQQZLRpNyG-0" />
        <mxCell id="-74E_I0a73wQQZLRpNyG-2" value="Title" style="rounded=0;whiteSpace=wrap;html=1;" parent="-74E_I0a73wQQZLRpNyG-1" vertex="1">
          <mxGeometry x="120" y="160" width="80" height="20" as="geometry" />
        </mxCell>
        <mxCell id="-74E_I0a73wQQZLRpNyG-3" value="Description" style="rounded=0;whiteSpace=wrap;html=1;" parent="-74E_I0a73wQQZLRpNyG-1" vertex="1">
          <mxGeometry x="120" y="180" width="80" height="20" as="geometry" />
        </mxCell>
        <mxCell id="-74E_I0a73wQQZLRpNyG-4" value="Acknowledgments" style="rounded=0;whiteSpace=wrap;html=1;" parent="-74E_I0a73wQQZLRpNyG-1" vertex="1">
          <mxGeometry x="120" y="200" width="80" height="20" as="geometry" />
        </mxCell>
        <mxCell id="-74E_I0a73wQQZLRpNyG-5" value="API Reference" style="rounded=0;whiteSpace=wrap;html=1;" parent="-74E_I0a73wQQZLRpNyG-1" vertex="1">
          <mxGeometry x="120" y="220" width="80" height="20" as="geometry" />
        </mxCell>
        <mxCell id="-74E_I0a73wQQZLRpNyG-6" value="Appendix" style="rounded=0;whiteSpace=wrap;html=1;" parent="-74E_I0a73wQQZLRpNyG-1" vertex="1">
          <mxGeometry x="120" y="240" width="80" height="20" as="geometry" />
        </mxCell>
        <mxCell id="-74E_I0a73wQQZLRpNyG-7" value="Authors" style="rounded=0;whiteSpace=wrap;html=1;" parent="-74E_I0a73wQQZLRpNyG-1" vertex="1">
          <mxGeometry x="240" y="160" width="80" height="20" as="geometry" />
        </mxCell>
        <mxCell id="-74E_I0a73wQQZLRpNyG-8" value="Badges" style="rounded=0;whiteSpace=wrap;html=1;" parent="-74E_I0a73wQQZLRpNyG-1" vertex="1">
          <mxGeometry x="240" y="180" width="80" height="20" as="geometry" />
        </mxCell>
        <mxCell id="-74E_I0a73wQQZLRpNyG-9" value="Contributing" style="rounded=0;whiteSpace=wrap;html=1;" parent="-74E_I0a73wQQZLRpNyG-1" vertex="1">
          <mxGeometry x="240" y="200" width="80" height="20" as="geometry" />
        </mxCell>
        <mxCell id="-74E_I0a73wQQZLRpNyG-10" value="Demo" style="rounded=0;whiteSpace=wrap;html=1;" parent="-74E_I0a73wQQZLRpNyG-1" vertex="1">
          <mxGeometry x="240" y="220" width="80" height="20" as="geometry" />
        </mxCell>
        <mxCell id="-74E_I0a73wQQZLRpNyG-11" value="Deployment" style="rounded=0;whiteSpace=wrap;html=1;" parent="-74E_I0a73wQQZLRpNyG-1" vertex="1">
          <mxGeometry x="240" y="240" width="80" height="20" as="geometry" />
        </mxCell>
        <mxCell id="-74E_I0a73wQQZLRpNyG-12" value="Documentation" style="rounded=0;whiteSpace=wrap;html=1;" parent="-74E_I0a73wQQZLRpNyG-1" vertex="1">
          <mxGeometry x="240" y="260" width="80" height="20" as="geometry" />
        </mxCell>
        <mxCell id="-74E_I0a73wQQZLRpNyG-13" value="Environment Variables" style="rounded=0;whiteSpace=wrap;html=1;" parent="-74E_I0a73wQQZLRpNyG-1" vertex="1">
          <mxGeometry x="240" y="280" width="80" height="20" as="geometry" />
        </mxCell>
        <mxCell id="-74E_I0a73wQQZLRpNyG-14" value="FAQ" style="rounded=0;whiteSpace=wrap;html=1;" parent="-74E_I0a73wQQZLRpNyG-1" vertex="1">
          <mxGeometry x="240" y="300" width="80" height="20" as="geometry" />
        </mxCell>
        <mxCell id="-74E_I0a73wQQZLRpNyG-15" value="Features" style="rounded=0;whiteSpace=wrap;html=1;" parent="-74E_I0a73wQQZLRpNyG-1" vertex="1">
          <mxGeometry x="240" y="320" width="80" height="20" as="geometry" />
        </mxCell>
        <mxCell id="-74E_I0a73wQQZLRpNyG-16" value="Feedback" style="rounded=0;whiteSpace=wrap;html=1;" parent="-74E_I0a73wQQZLRpNyG-1" vertex="1">
          <mxGeometry x="240" y="340" width="80" height="20" as="geometry" />
        </mxCell>
        <mxCell id="-74E_I0a73wQQZLRpNyG-17" value="Installation" style="rounded=0;whiteSpace=wrap;html=1;" parent="-74E_I0a73wQQZLRpNyG-1" vertex="1">
          <mxGeometry x="240" y="360" width="80" height="20" as="geometry" />
        </mxCell>
        <mxCell id="-IYvJ4tw47c92NJLPVm0-0" value="Title" parent="-74E_I0a73wQQZLRpNyG-0" visible="0" />
        <mxCell id="obyA_O2zqKeAPpNKIxle-0" value="&lt;font style=&quot;font-size: 12px&quot;&gt;Diagram: Documentation - ReadMe Sections&lt;/font&gt;" style="text;strokeColor=none;fillColor=none;html=1;fontSize=12;fontStyle=2;verticalAlign=middle;align=left;shadow=0;glass=0;comic=0;opacity=30;fontColor=#808080;" parent="-IYvJ4tw47c92NJLPVm0-0" vertex="1">
          <mxGeometry x="120" y="400" width="480" height="20" as="geometry" />
        </mxCell>
      </root>
    </mxGraphModel>
  </diagram>
</mxfile>
